<mxfile host="app.diagrams.net" modified="2023-03-03T18:02:53.431Z" agent="5.0 (Macintosh; Intel Mac OS X 10_15_7) AppleWebKit/605.1.15 (KHTML, like Gecko) Version/15.4 Safari/605.1.15" etag="bMuA96NTgDYXLCIlLMoM" version="21.0.2" type="github">
  <diagram name="Page-1" id="2YBvvXClWsGukQMizWep">
    <mxGraphModel dx="838" dy="718" grid="1" gridSize="10" guides="1" tooltips="1" connect="0" arrows="0" fold="1" page="1" pageScale="1" pageWidth="850" pageHeight="1100" background="#030303" math="0" shadow="0">
      <root>
        <mxCell id="0" />
        <mxCell id="1" parent="0" />
        <mxCell id="mBRvrq2SXmdG_fh77SU5-149" value="" style="group" vertex="1" connectable="0" parent="1">
          <mxGeometry x="680" y="200" width="80" height="40" as="geometry" />
        </mxCell>
        <mxCell id="mBRvrq2SXmdG_fh77SU5-144" value="" style="whiteSpace=wrap;html=1;aspect=fixed;fillColor=#08F500;strokeColor=#0AC404;fontColor=#333333;strokeWidth=2;movable=0;resizable=0;rotatable=0;deletable=0;editable=0;locked=1;connectable=0;" vertex="1" parent="mBRvrq2SXmdG_fh77SU5-149">
          <mxGeometry x="60" width="20" height="20" as="geometry" />
        </mxCell>
        <mxCell id="mBRvrq2SXmdG_fh77SU5-145" value="" style="whiteSpace=wrap;html=1;aspect=fixed;fillColor=#08F500;strokeColor=#0AC404;fontColor=#333333;strokeWidth=2;movable=0;resizable=0;rotatable=0;deletable=0;editable=0;locked=1;connectable=0;" vertex="1" parent="mBRvrq2SXmdG_fh77SU5-149">
          <mxGeometry x="60" y="20" width="20" height="20" as="geometry" />
        </mxCell>
        <mxCell id="mBRvrq2SXmdG_fh77SU5-146" value="" style="whiteSpace=wrap;html=1;aspect=fixed;fillColor=#08F500;strokeColor=#0AC404;fontColor=#333333;strokeWidth=2;movable=1;resizable=1;rotatable=1;deletable=1;editable=1;locked=0;connectable=1;" vertex="1" parent="mBRvrq2SXmdG_fh77SU5-149">
          <mxGeometry x="40" y="20" width="20" height="20" as="geometry" />
        </mxCell>
        <mxCell id="mBRvrq2SXmdG_fh77SU5-147" value="" style="whiteSpace=wrap;html=1;aspect=fixed;fillColor=#08F500;strokeColor=#0AC404;fontColor=#333333;strokeWidth=2;movable=0;resizable=0;rotatable=0;deletable=0;editable=0;locked=1;connectable=0;" vertex="1" parent="mBRvrq2SXmdG_fh77SU5-149">
          <mxGeometry x="20" y="20" width="20" height="20" as="geometry" />
        </mxCell>
        <mxCell id="mBRvrq2SXmdG_fh77SU5-148" value="" style="whiteSpace=wrap;html=1;aspect=fixed;fillColor=#08F500;strokeColor=#0AC404;fontColor=#333333;strokeWidth=2;movable=0;resizable=0;rotatable=0;deletable=0;editable=0;locked=1;connectable=0;" vertex="1" parent="mBRvrq2SXmdG_fh77SU5-149">
          <mxGeometry y="20" width="20" height="20" as="geometry" />
        </mxCell>
        <mxCell id="mBRvrq2SXmdG_fh77SU5-158" value="" style="group" vertex="1" connectable="0" parent="1">
          <mxGeometry x="690" y="280" width="60" height="60" as="geometry" />
        </mxCell>
        <mxCell id="mBRvrq2SXmdG_fh77SU5-150" value="" style="whiteSpace=wrap;html=1;aspect=fixed;fillColor=#F52100;strokeColor=#991500;fontColor=#333333;strokeWidth=2;" vertex="1" parent="mBRvrq2SXmdG_fh77SU5-158">
          <mxGeometry width="20" height="20" as="geometry" />
        </mxCell>
        <mxCell id="mBRvrq2SXmdG_fh77SU5-151" value="" style="whiteSpace=wrap;html=1;aspect=fixed;fillColor=#F52100;strokeColor=#991500;fontColor=#333333;strokeWidth=2;" vertex="1" parent="mBRvrq2SXmdG_fh77SU5-158">
          <mxGeometry x="20" width="20" height="20" as="geometry" />
        </mxCell>
        <mxCell id="mBRvrq2SXmdG_fh77SU5-152" value="" style="whiteSpace=wrap;html=1;aspect=fixed;fillColor=#F52100;strokeColor=#991500;fontColor=#333333;strokeWidth=2;" vertex="1" parent="mBRvrq2SXmdG_fh77SU5-158">
          <mxGeometry x="20" y="20" width="20" height="20" as="geometry" />
        </mxCell>
        <mxCell id="mBRvrq2SXmdG_fh77SU5-153" value="" style="whiteSpace=wrap;html=1;aspect=fixed;fillColor=#F52100;strokeColor=#991500;fontColor=#333333;strokeWidth=2;" vertex="1" parent="mBRvrq2SXmdG_fh77SU5-158">
          <mxGeometry x="40" width="20" height="20" as="geometry" />
        </mxCell>
        <mxCell id="mBRvrq2SXmdG_fh77SU5-154" value="" style="whiteSpace=wrap;html=1;aspect=fixed;fillColor=#F52100;strokeColor=#991500;fontColor=#333333;strokeWidth=2;" vertex="1" parent="mBRvrq2SXmdG_fh77SU5-158">
          <mxGeometry x="20" y="40" width="20" height="20" as="geometry" />
        </mxCell>
        <mxCell id="mBRvrq2SXmdG_fh77SU5-160" value="" style="whiteSpace=wrap;html=1;aspect=fixed;fillColor=#00F5ED;strokeColor=#00ABA5;fontColor=#333333;strokeWidth=2;" vertex="1" parent="1">
          <mxGeometry x="720" y="400" width="20" height="20" as="geometry" />
        </mxCell>
        <mxCell id="mBRvrq2SXmdG_fh77SU5-161" value="" style="whiteSpace=wrap;html=1;aspect=fixed;fillColor=#00F5ED;strokeColor=#00ABA5;fontColor=#333333;strokeWidth=2;" vertex="1" parent="1">
          <mxGeometry x="700" y="400" width="20" height="20" as="geometry" />
        </mxCell>
        <mxCell id="mBRvrq2SXmdG_fh77SU5-162" value="" style="whiteSpace=wrap;html=1;aspect=fixed;fillColor=#00F5ED;strokeColor=#00ABA5;fontColor=#333333;strokeWidth=2;" vertex="1" parent="1">
          <mxGeometry x="680" y="400" width="20" height="20" as="geometry" />
        </mxCell>
        <mxCell id="mBRvrq2SXmdG_fh77SU5-164" value="" style="whiteSpace=wrap;html=1;aspect=fixed;fillColor=#00F5ED;strokeColor=#00ABA5;fontColor=#333333;strokeWidth=2;" vertex="1" parent="1">
          <mxGeometry x="740" y="400" width="20" height="20" as="geometry" />
        </mxCell>
        <mxCell id="mBRvrq2SXmdG_fh77SU5-165" value="" style="whiteSpace=wrap;html=1;aspect=fixed;fillColor=#00F5ED;strokeColor=#00ABA5;fontColor=#333333;strokeWidth=2;" vertex="1" parent="1">
          <mxGeometry x="680" y="380" width="20" height="20" as="geometry" />
        </mxCell>
        <mxCell id="mBRvrq2SXmdG_fh77SU5-172" value="" style="group" vertex="1" connectable="0" parent="1">
          <mxGeometry x="700" y="460" width="60" height="40" as="geometry" />
        </mxCell>
        <mxCell id="mBRvrq2SXmdG_fh77SU5-166" value="" style="whiteSpace=wrap;html=1;aspect=fixed;fillColor=#BC00F5;strokeColor=#710094;fontColor=#333333;strokeWidth=2;" vertex="1" parent="mBRvrq2SXmdG_fh77SU5-172">
          <mxGeometry x="20" width="20" height="20" as="geometry" />
        </mxCell>
        <mxCell id="mBRvrq2SXmdG_fh77SU5-167" value="" style="whiteSpace=wrap;html=1;aspect=fixed;fillColor=#BC00F5;strokeColor=#710094;fontColor=#333333;strokeWidth=2;" vertex="1" parent="mBRvrq2SXmdG_fh77SU5-172">
          <mxGeometry x="20" y="20" width="20" height="20" as="geometry" />
        </mxCell>
        <mxCell id="mBRvrq2SXmdG_fh77SU5-168" value="" style="whiteSpace=wrap;html=1;aspect=fixed;fillColor=#BC00F5;strokeColor=#710094;fontColor=#333333;strokeWidth=2;" vertex="1" parent="mBRvrq2SXmdG_fh77SU5-172">
          <mxGeometry x="40" y="20" width="20" height="20" as="geometry" />
        </mxCell>
        <mxCell id="mBRvrq2SXmdG_fh77SU5-169" value="" style="whiteSpace=wrap;html=1;aspect=fixed;fillColor=#BC00F5;strokeColor=#710094;fontColor=#333333;strokeWidth=2;" vertex="1" parent="mBRvrq2SXmdG_fh77SU5-172">
          <mxGeometry x="40" width="20" height="20" as="geometry" />
        </mxCell>
        <mxCell id="mBRvrq2SXmdG_fh77SU5-170" value="" style="whiteSpace=wrap;html=1;aspect=fixed;fillColor=#BC00F5;strokeColor=#710094;fontColor=#333333;strokeWidth=2;" vertex="1" parent="mBRvrq2SXmdG_fh77SU5-172">
          <mxGeometry width="20" height="20" as="geometry" />
        </mxCell>
        <mxCell id="mBRvrq2SXmdG_fh77SU5-171" style="edgeStyle=orthogonalEdgeStyle;rounded=0;orthogonalLoop=1;jettySize=auto;html=1;exitX=0;exitY=0.75;exitDx=0;exitDy=0;" edge="1" parent="mBRvrq2SXmdG_fh77SU5-172" source="mBRvrq2SXmdG_fh77SU5-167" target="mBRvrq2SXmdG_fh77SU5-167">
          <mxGeometry relative="1" as="geometry" />
        </mxCell>
        <mxCell id="mBRvrq2SXmdG_fh77SU5-179" value="" style="group" vertex="1" connectable="0" parent="1">
          <mxGeometry x="700" y="540" width="60" height="40" as="geometry" />
        </mxCell>
        <mxCell id="mBRvrq2SXmdG_fh77SU5-173" value="" style="whiteSpace=wrap;html=1;aspect=fixed;fillColor=#F5F500;strokeColor=#BFBF00;fontColor=#333333;strokeWidth=2;" vertex="1" parent="mBRvrq2SXmdG_fh77SU5-179">
          <mxGeometry width="20" height="20" as="geometry" />
        </mxCell>
        <mxCell id="mBRvrq2SXmdG_fh77SU5-174" value="" style="whiteSpace=wrap;html=1;aspect=fixed;fillColor=#F5F500;strokeColor=#BFBF00;fontColor=#333333;strokeWidth=2;" vertex="1" parent="mBRvrq2SXmdG_fh77SU5-179">
          <mxGeometry x="20" width="20" height="20" as="geometry" />
        </mxCell>
        <mxCell id="mBRvrq2SXmdG_fh77SU5-175" value="" style="whiteSpace=wrap;html=1;aspect=fixed;fillColor=#F5F500;strokeColor=#BFBF00;fontColor=#333333;strokeWidth=2;" vertex="1" parent="mBRvrq2SXmdG_fh77SU5-179">
          <mxGeometry y="20" width="20" height="20" as="geometry" />
        </mxCell>
        <mxCell id="mBRvrq2SXmdG_fh77SU5-176" value="" style="whiteSpace=wrap;html=1;aspect=fixed;fillColor=#F5F500;strokeColor=#BFBF00;fontColor=#333333;strokeWidth=2;" vertex="1" parent="mBRvrq2SXmdG_fh77SU5-179">
          <mxGeometry x="40" width="20" height="20" as="geometry" />
        </mxCell>
        <mxCell id="mBRvrq2SXmdG_fh77SU5-177" value="" style="whiteSpace=wrap;html=1;aspect=fixed;fillColor=#F5F500;strokeColor=#BFBF00;fontColor=#333333;strokeWidth=2;" vertex="1" parent="mBRvrq2SXmdG_fh77SU5-179">
          <mxGeometry x="20" y="20" width="20" height="20" as="geometry" />
        </mxCell>
        <mxCell id="mBRvrq2SXmdG_fh77SU5-185" value="" style="group" vertex="1" connectable="0" parent="1">
          <mxGeometry x="680" y="620" width="100" height="20" as="geometry" />
        </mxCell>
        <mxCell id="mBRvrq2SXmdG_fh77SU5-180" value="" style="whiteSpace=wrap;html=1;aspect=fixed;fillColor=#0019F5;strokeColor=#00109E;fontColor=#333333;strokeWidth=2;" vertex="1" parent="mBRvrq2SXmdG_fh77SU5-185">
          <mxGeometry width="20" height="20" as="geometry" />
        </mxCell>
        <mxCell id="mBRvrq2SXmdG_fh77SU5-181" value="" style="whiteSpace=wrap;html=1;aspect=fixed;fillColor=#0019F5;strokeColor=#00109E;fontColor=#333333;strokeWidth=2;" vertex="1" parent="mBRvrq2SXmdG_fh77SU5-185">
          <mxGeometry x="20" width="20" height="20" as="geometry" />
        </mxCell>
        <mxCell id="mBRvrq2SXmdG_fh77SU5-182" value="" style="whiteSpace=wrap;html=1;aspect=fixed;fillColor=#0019F5;strokeColor=#00109E;fontColor=#333333;strokeWidth=2;" vertex="1" parent="mBRvrq2SXmdG_fh77SU5-185">
          <mxGeometry x="60" width="20" height="20" as="geometry" />
        </mxCell>
        <mxCell id="mBRvrq2SXmdG_fh77SU5-183" value="" style="whiteSpace=wrap;html=1;aspect=fixed;fillColor=#0019F5;strokeColor=#00109E;fontColor=#333333;strokeWidth=2;" vertex="1" parent="mBRvrq2SXmdG_fh77SU5-185">
          <mxGeometry x="40" width="20" height="20" as="geometry" />
        </mxCell>
        <mxCell id="mBRvrq2SXmdG_fh77SU5-184" value="" style="whiteSpace=wrap;html=1;aspect=fixed;fillColor=#0019F5;strokeColor=#00109E;fontColor=#333333;strokeWidth=2;" vertex="1" parent="mBRvrq2SXmdG_fh77SU5-185">
          <mxGeometry x="80" width="20" height="20" as="geometry" />
        </mxCell>
        <mxCell id="mBRvrq2SXmdG_fh77SU5-192" value="" style="group" vertex="1" connectable="0" parent="1">
          <mxGeometry x="690" y="660" width="60" height="40" as="geometry" />
        </mxCell>
        <mxCell id="mBRvrq2SXmdG_fh77SU5-186" value="" style="whiteSpace=wrap;html=1;aspect=fixed;fillColor=#F59C02;strokeColor=#BF7A02;fontColor=#333333;strokeWidth=2;" vertex="1" parent="mBRvrq2SXmdG_fh77SU5-192">
          <mxGeometry y="20" width="20" height="20" as="geometry" />
        </mxCell>
        <mxCell id="mBRvrq2SXmdG_fh77SU5-187" value="" style="whiteSpace=wrap;html=1;aspect=fixed;fillColor=#F59C02;strokeColor=#BF7A02;fontColor=#333333;strokeWidth=2;" vertex="1" parent="mBRvrq2SXmdG_fh77SU5-192">
          <mxGeometry x="20" y="20" width="20" height="20" as="geometry" />
        </mxCell>
        <mxCell id="mBRvrq2SXmdG_fh77SU5-188" value="" style="whiteSpace=wrap;html=1;aspect=fixed;fillColor=#F59C02;strokeColor=#BF7A02;fontColor=#333333;strokeWidth=2;" vertex="1" parent="mBRvrq2SXmdG_fh77SU5-192">
          <mxGeometry width="20" height="20" as="geometry" />
        </mxCell>
        <mxCell id="mBRvrq2SXmdG_fh77SU5-189" value="" style="whiteSpace=wrap;html=1;aspect=fixed;fillColor=#F59C02;strokeColor=#BF7A02;fontColor=#333333;strokeWidth=2;" vertex="1" parent="mBRvrq2SXmdG_fh77SU5-192">
          <mxGeometry x="40" y="20" width="20" height="20" as="geometry" />
        </mxCell>
        <mxCell id="mBRvrq2SXmdG_fh77SU5-190" value="" style="whiteSpace=wrap;html=1;aspect=fixed;fillColor=#F59C02;strokeColor=#BF7A02;fontColor=#333333;strokeWidth=2;" vertex="1" parent="mBRvrq2SXmdG_fh77SU5-192">
          <mxGeometry x="40" width="20" height="20" as="geometry" />
        </mxCell>
        <mxCell id="mBRvrq2SXmdG_fh77SU5-317" value="" style="group" vertex="1" connectable="0" parent="1">
          <mxGeometry x="90" y="150" width="190" height="90" as="geometry" />
        </mxCell>
        <mxCell id="mBRvrq2SXmdG_fh77SU5-204" value="" style="group" vertex="1" connectable="0" parent="mBRvrq2SXmdG_fh77SU5-317">
          <mxGeometry y="5" width="30" height="10" as="geometry" />
        </mxCell>
        <mxCell id="mBRvrq2SXmdG_fh77SU5-194" value="" style="whiteSpace=wrap;html=1;aspect=fixed;fillColor=#FFFFFF;strokeColor=#CFCFCF;fontColor=#333333;strokeWidth=2;" vertex="1" parent="mBRvrq2SXmdG_fh77SU5-204">
          <mxGeometry width="10" height="10" as="geometry" />
        </mxCell>
        <mxCell id="mBRvrq2SXmdG_fh77SU5-202" value="" style="whiteSpace=wrap;html=1;aspect=fixed;fillColor=#FFFFFF;strokeColor=#CFCFCF;fontColor=#333333;strokeWidth=2;" vertex="1" parent="mBRvrq2SXmdG_fh77SU5-204">
          <mxGeometry x="10" width="10" height="10" as="geometry" />
        </mxCell>
        <mxCell id="mBRvrq2SXmdG_fh77SU5-203" value="" style="whiteSpace=wrap;html=1;aspect=fixed;fillColor=#FFFFFF;strokeColor=#CFCFCF;fontColor=#333333;strokeWidth=2;" vertex="1" parent="mBRvrq2SXmdG_fh77SU5-204">
          <mxGeometry x="20" width="10" height="10" as="geometry" />
        </mxCell>
        <mxCell id="mBRvrq2SXmdG_fh77SU5-213" value="" style="group;rotation=180;" vertex="1" connectable="0" parent="mBRvrq2SXmdG_fh77SU5-317">
          <mxGeometry y="35" width="30" height="10" as="geometry" />
        </mxCell>
        <mxCell id="mBRvrq2SXmdG_fh77SU5-214" value="" style="whiteSpace=wrap;html=1;aspect=fixed;fillColor=#FFFFFF;strokeColor=#CFCFCF;fontColor=#333333;strokeWidth=2;" vertex="1" parent="mBRvrq2SXmdG_fh77SU5-213">
          <mxGeometry width="10" height="10" as="geometry" />
        </mxCell>
        <mxCell id="mBRvrq2SXmdG_fh77SU5-215" value="" style="whiteSpace=wrap;html=1;aspect=fixed;fillColor=#FFFFFF;strokeColor=#CFCFCF;fontColor=#333333;strokeWidth=2;" vertex="1" parent="mBRvrq2SXmdG_fh77SU5-213">
          <mxGeometry x="10" width="10" height="10" as="geometry" />
        </mxCell>
        <mxCell id="mBRvrq2SXmdG_fh77SU5-216" value="" style="whiteSpace=wrap;html=1;aspect=fixed;fillColor=#FFFFFF;strokeColor=#CFCFCF;fontColor=#333333;strokeWidth=2;" vertex="1" parent="mBRvrq2SXmdG_fh77SU5-213">
          <mxGeometry x="20" width="10" height="10" as="geometry" />
        </mxCell>
        <mxCell id="mBRvrq2SXmdG_fh77SU5-217" value="" style="group" vertex="1" connectable="0" parent="mBRvrq2SXmdG_fh77SU5-317">
          <mxGeometry y="65" width="30" height="10" as="geometry" />
        </mxCell>
        <mxCell id="mBRvrq2SXmdG_fh77SU5-218" value="" style="whiteSpace=wrap;html=1;aspect=fixed;fillColor=#FFFFFF;strokeColor=#CFCFCF;fontColor=#333333;strokeWidth=2;" vertex="1" parent="mBRvrq2SXmdG_fh77SU5-217">
          <mxGeometry width="10" height="10" as="geometry" />
        </mxCell>
        <mxCell id="mBRvrq2SXmdG_fh77SU5-219" value="" style="whiteSpace=wrap;html=1;aspect=fixed;fillColor=#FFFFFF;strokeColor=#CFCFCF;fontColor=#333333;strokeWidth=2;" vertex="1" parent="mBRvrq2SXmdG_fh77SU5-217">
          <mxGeometry x="10" width="10" height="10" as="geometry" />
        </mxCell>
        <mxCell id="mBRvrq2SXmdG_fh77SU5-220" value="" style="whiteSpace=wrap;html=1;aspect=fixed;fillColor=#FFFFFF;strokeColor=#CFCFCF;fontColor=#333333;strokeWidth=2;" vertex="1" parent="mBRvrq2SXmdG_fh77SU5-217">
          <mxGeometry x="20" width="10" height="10" as="geometry" />
        </mxCell>
        <mxCell id="mBRvrq2SXmdG_fh77SU5-221" value="" style="group;rotation=90;" vertex="1" connectable="0" parent="mBRvrq2SXmdG_fh77SU5-317">
          <mxGeometry x="10" y="55" width="30" height="10" as="geometry" />
        </mxCell>
        <mxCell id="mBRvrq2SXmdG_fh77SU5-222" value="" style="whiteSpace=wrap;html=1;aspect=fixed;fillColor=#FFFFFF;strokeColor=#CFCFCF;fontColor=#333333;strokeWidth=2;rotation=90;" vertex="1" parent="mBRvrq2SXmdG_fh77SU5-221">
          <mxGeometry x="10" y="-10" width="10" height="10" as="geometry" />
        </mxCell>
        <mxCell id="mBRvrq2SXmdG_fh77SU5-223" value="" style="whiteSpace=wrap;html=1;aspect=fixed;fillColor=#FFFFFF;strokeColor=#CFCFCF;fontColor=#333333;strokeWidth=2;rotation=90;" vertex="1" parent="mBRvrq2SXmdG_fh77SU5-221">
          <mxGeometry x="10" width="10" height="10" as="geometry" />
        </mxCell>
        <mxCell id="mBRvrq2SXmdG_fh77SU5-224" value="" style="whiteSpace=wrap;html=1;aspect=fixed;fillColor=#FFFFFF;strokeColor=#CFCFCF;fontColor=#333333;strokeWidth=2;rotation=90;" vertex="1" parent="mBRvrq2SXmdG_fh77SU5-221">
          <mxGeometry x="10" y="10" width="10" height="10" as="geometry" />
        </mxCell>
        <mxCell id="mBRvrq2SXmdG_fh77SU5-225" value="" style="group;rotation=90;" vertex="1" connectable="0" parent="mBRvrq2SXmdG_fh77SU5-317">
          <mxGeometry x="-10" y="25" width="30" height="10" as="geometry" />
        </mxCell>
        <mxCell id="mBRvrq2SXmdG_fh77SU5-226" value="" style="whiteSpace=wrap;html=1;aspect=fixed;fillColor=#FFFFFF;strokeColor=#CFCFCF;fontColor=#333333;strokeWidth=2;rotation=90;" vertex="1" parent="mBRvrq2SXmdG_fh77SU5-225">
          <mxGeometry x="10" y="-10" width="10" height="10" as="geometry" />
        </mxCell>
        <mxCell id="mBRvrq2SXmdG_fh77SU5-227" value="" style="whiteSpace=wrap;html=1;aspect=fixed;fillColor=#FFFFFF;strokeColor=#CFCFCF;fontColor=#333333;strokeWidth=2;rotation=90;" vertex="1" parent="mBRvrq2SXmdG_fh77SU5-225">
          <mxGeometry x="10" width="10" height="10" as="geometry" />
        </mxCell>
        <mxCell id="mBRvrq2SXmdG_fh77SU5-228" value="" style="whiteSpace=wrap;html=1;aspect=fixed;fillColor=#FFFFFF;strokeColor=#CFCFCF;fontColor=#333333;strokeWidth=2;rotation=90;" vertex="1" parent="mBRvrq2SXmdG_fh77SU5-225">
          <mxGeometry x="10" y="10" width="10" height="10" as="geometry" />
        </mxCell>
        <mxCell id="mBRvrq2SXmdG_fh77SU5-229" value="" style="group" vertex="1" connectable="0" parent="mBRvrq2SXmdG_fh77SU5-317">
          <mxGeometry x="40" y="5" width="30" height="10" as="geometry" />
        </mxCell>
        <mxCell id="mBRvrq2SXmdG_fh77SU5-230" value="" style="whiteSpace=wrap;html=1;aspect=fixed;fillColor=#FFFFFF;strokeColor=#CFCFCF;fontColor=#333333;strokeWidth=2;" vertex="1" parent="mBRvrq2SXmdG_fh77SU5-229">
          <mxGeometry width="10" height="10" as="geometry" />
        </mxCell>
        <mxCell id="mBRvrq2SXmdG_fh77SU5-231" value="" style="whiteSpace=wrap;html=1;aspect=fixed;fillColor=#FFFFFF;strokeColor=#CFCFCF;fontColor=#333333;strokeWidth=2;" vertex="1" parent="mBRvrq2SXmdG_fh77SU5-229">
          <mxGeometry x="10" width="10" height="10" as="geometry" />
        </mxCell>
        <mxCell id="mBRvrq2SXmdG_fh77SU5-232" value="" style="whiteSpace=wrap;html=1;aspect=fixed;fillColor=#FFFFFF;strokeColor=#CFCFCF;fontColor=#333333;strokeWidth=2;" vertex="1" parent="mBRvrq2SXmdG_fh77SU5-229">
          <mxGeometry x="20" width="10" height="10" as="geometry" />
        </mxCell>
        <mxCell id="mBRvrq2SXmdG_fh77SU5-233" value="" style="group;rotation=90;" vertex="1" connectable="0" parent="mBRvrq2SXmdG_fh77SU5-317">
          <mxGeometry x="30" y="25" width="30" height="10" as="geometry" />
        </mxCell>
        <mxCell id="mBRvrq2SXmdG_fh77SU5-234" value="" style="whiteSpace=wrap;html=1;aspect=fixed;fillColor=#FFFFFF;strokeColor=#CFCFCF;fontColor=#333333;strokeWidth=2;rotation=90;" vertex="1" parent="mBRvrq2SXmdG_fh77SU5-233">
          <mxGeometry x="10" y="-10" width="10" height="10" as="geometry" />
        </mxCell>
        <mxCell id="mBRvrq2SXmdG_fh77SU5-235" value="" style="whiteSpace=wrap;html=1;aspect=fixed;fillColor=#FFFFFF;strokeColor=#CFCFCF;fontColor=#333333;strokeWidth=2;rotation=90;" vertex="1" parent="mBRvrq2SXmdG_fh77SU5-233">
          <mxGeometry x="10" width="10" height="10" as="geometry" />
        </mxCell>
        <mxCell id="mBRvrq2SXmdG_fh77SU5-236" value="" style="whiteSpace=wrap;html=1;aspect=fixed;fillColor=#FFFFFF;strokeColor=#CFCFCF;fontColor=#333333;strokeWidth=2;rotation=90;" vertex="1" parent="mBRvrq2SXmdG_fh77SU5-233">
          <mxGeometry x="10" y="10" width="10" height="10" as="geometry" />
        </mxCell>
        <mxCell id="mBRvrq2SXmdG_fh77SU5-237" value="" style="group;rotation=90;" vertex="1" connectable="0" parent="mBRvrq2SXmdG_fh77SU5-317">
          <mxGeometry x="30" y="55" width="30" height="10" as="geometry" />
        </mxCell>
        <mxCell id="mBRvrq2SXmdG_fh77SU5-238" value="" style="whiteSpace=wrap;html=1;aspect=fixed;fillColor=#FFFFFF;strokeColor=#CFCFCF;fontColor=#333333;strokeWidth=2;rotation=90;" vertex="1" parent="mBRvrq2SXmdG_fh77SU5-237">
          <mxGeometry x="10" y="-10" width="10" height="10" as="geometry" />
        </mxCell>
        <mxCell id="mBRvrq2SXmdG_fh77SU5-239" value="" style="whiteSpace=wrap;html=1;aspect=fixed;fillColor=#FFFFFF;strokeColor=#CFCFCF;fontColor=#333333;strokeWidth=2;rotation=90;" vertex="1" parent="mBRvrq2SXmdG_fh77SU5-237">
          <mxGeometry x="10" width="10" height="10" as="geometry" />
        </mxCell>
        <mxCell id="mBRvrq2SXmdG_fh77SU5-240" value="" style="whiteSpace=wrap;html=1;aspect=fixed;fillColor=#FFFFFF;strokeColor=#CFCFCF;fontColor=#333333;strokeWidth=2;rotation=90;" vertex="1" parent="mBRvrq2SXmdG_fh77SU5-237">
          <mxGeometry x="10" y="10" width="10" height="10" as="geometry" />
        </mxCell>
        <mxCell id="mBRvrq2SXmdG_fh77SU5-241" value="" style="group" vertex="1" connectable="0" parent="mBRvrq2SXmdG_fh77SU5-317">
          <mxGeometry x="40" y="65" width="30" height="10" as="geometry" />
        </mxCell>
        <mxCell id="mBRvrq2SXmdG_fh77SU5-242" value="" style="whiteSpace=wrap;html=1;aspect=fixed;fillColor=#FFFFFF;strokeColor=#CFCFCF;fontColor=#333333;strokeWidth=2;" vertex="1" parent="mBRvrq2SXmdG_fh77SU5-241">
          <mxGeometry width="10" height="10" as="geometry" />
        </mxCell>
        <mxCell id="mBRvrq2SXmdG_fh77SU5-243" value="" style="whiteSpace=wrap;html=1;aspect=fixed;fillColor=#FFFFFF;strokeColor=#CFCFCF;fontColor=#333333;strokeWidth=2;" vertex="1" parent="mBRvrq2SXmdG_fh77SU5-241">
          <mxGeometry x="10" width="10" height="10" as="geometry" />
        </mxCell>
        <mxCell id="mBRvrq2SXmdG_fh77SU5-244" value="" style="whiteSpace=wrap;html=1;aspect=fixed;fillColor=#FFFFFF;strokeColor=#CFCFCF;fontColor=#333333;strokeWidth=2;" vertex="1" parent="mBRvrq2SXmdG_fh77SU5-241">
          <mxGeometry x="20" width="10" height="10" as="geometry" />
        </mxCell>
        <mxCell id="mBRvrq2SXmdG_fh77SU5-245" value="" style="group" vertex="1" connectable="0" parent="mBRvrq2SXmdG_fh77SU5-317">
          <mxGeometry x="80" y="5" width="30" height="10" as="geometry" />
        </mxCell>
        <mxCell id="mBRvrq2SXmdG_fh77SU5-246" value="" style="whiteSpace=wrap;html=1;aspect=fixed;fillColor=#FFFFFF;strokeColor=#CFCFCF;fontColor=#333333;strokeWidth=2;" vertex="1" parent="mBRvrq2SXmdG_fh77SU5-245">
          <mxGeometry width="10" height="10" as="geometry" />
        </mxCell>
        <mxCell id="mBRvrq2SXmdG_fh77SU5-247" value="" style="whiteSpace=wrap;html=1;aspect=fixed;fillColor=#FFFFFF;strokeColor=#CFCFCF;fontColor=#333333;strokeWidth=2;" vertex="1" parent="mBRvrq2SXmdG_fh77SU5-245">
          <mxGeometry x="10" width="10" height="10" as="geometry" />
        </mxCell>
        <mxCell id="mBRvrq2SXmdG_fh77SU5-248" value="" style="whiteSpace=wrap;html=1;aspect=fixed;fillColor=#FFFFFF;strokeColor=#CFCFCF;fontColor=#333333;strokeWidth=2;" vertex="1" parent="mBRvrq2SXmdG_fh77SU5-245">
          <mxGeometry x="20" width="10" height="10" as="geometry" />
        </mxCell>
        <mxCell id="mBRvrq2SXmdG_fh77SU5-249" value="" style="group;rotation=90;" vertex="1" connectable="0" parent="mBRvrq2SXmdG_fh77SU5-317">
          <mxGeometry x="90" y="25" width="30" height="10" as="geometry" />
        </mxCell>
        <mxCell id="mBRvrq2SXmdG_fh77SU5-250" value="" style="whiteSpace=wrap;html=1;aspect=fixed;fillColor=#FFFFFF;strokeColor=#CFCFCF;fontColor=#333333;strokeWidth=2;rotation=90;" vertex="1" parent="mBRvrq2SXmdG_fh77SU5-249">
          <mxGeometry x="10" y="-10" width="10" height="10" as="geometry" />
        </mxCell>
        <mxCell id="mBRvrq2SXmdG_fh77SU5-251" value="" style="whiteSpace=wrap;html=1;aspect=fixed;fillColor=#FFFFFF;strokeColor=#CFCFCF;fontColor=#333333;strokeWidth=2;rotation=90;" vertex="1" parent="mBRvrq2SXmdG_fh77SU5-249">
          <mxGeometry x="10" width="10" height="10" as="geometry" />
        </mxCell>
        <mxCell id="mBRvrq2SXmdG_fh77SU5-252" value="" style="whiteSpace=wrap;html=1;aspect=fixed;fillColor=#FFFFFF;strokeColor=#CFCFCF;fontColor=#333333;strokeWidth=2;rotation=90;" vertex="1" parent="mBRvrq2SXmdG_fh77SU5-249">
          <mxGeometry x="10" y="10" width="10" height="10" as="geometry" />
        </mxCell>
        <mxCell id="mBRvrq2SXmdG_fh77SU5-253" value="" style="group;rotation=90;" vertex="1" connectable="0" parent="mBRvrq2SXmdG_fh77SU5-317">
          <mxGeometry x="70" y="25" width="30" height="10" as="geometry" />
        </mxCell>
        <mxCell id="mBRvrq2SXmdG_fh77SU5-254" value="" style="whiteSpace=wrap;html=1;aspect=fixed;fillColor=#FFFFFF;strokeColor=#CFCFCF;fontColor=#333333;strokeWidth=2;rotation=90;" vertex="1" parent="mBRvrq2SXmdG_fh77SU5-253">
          <mxGeometry x="10" y="-10" width="10" height="10" as="geometry" />
        </mxCell>
        <mxCell id="mBRvrq2SXmdG_fh77SU5-255" value="" style="whiteSpace=wrap;html=1;aspect=fixed;fillColor=#FFFFFF;strokeColor=#CFCFCF;fontColor=#333333;strokeWidth=2;rotation=90;" vertex="1" parent="mBRvrq2SXmdG_fh77SU5-253">
          <mxGeometry x="10" width="10" height="10" as="geometry" />
        </mxCell>
        <mxCell id="mBRvrq2SXmdG_fh77SU5-256" value="" style="whiteSpace=wrap;html=1;aspect=fixed;fillColor=#FFFFFF;strokeColor=#CFCFCF;fontColor=#333333;strokeWidth=2;rotation=90;" vertex="1" parent="mBRvrq2SXmdG_fh77SU5-253">
          <mxGeometry x="10" y="10" width="10" height="10" as="geometry" />
        </mxCell>
        <mxCell id="mBRvrq2SXmdG_fh77SU5-257" value="" style="group;rotation=90;" vertex="1" connectable="0" parent="mBRvrq2SXmdG_fh77SU5-317">
          <mxGeometry x="70" y="55" width="50" height="20" as="geometry" />
        </mxCell>
        <mxCell id="mBRvrq2SXmdG_fh77SU5-258" value="" style="whiteSpace=wrap;html=1;aspect=fixed;fillColor=#FFFFFF;strokeColor=#CFCFCF;fontColor=#333333;strokeWidth=2;rotation=90;" vertex="1" parent="mBRvrq2SXmdG_fh77SU5-257">
          <mxGeometry x="10" y="-10" width="10" height="10" as="geometry" />
        </mxCell>
        <mxCell id="mBRvrq2SXmdG_fh77SU5-259" value="" style="whiteSpace=wrap;html=1;aspect=fixed;fillColor=#FFFFFF;strokeColor=#CFCFCF;fontColor=#333333;strokeWidth=2;rotation=90;" vertex="1" parent="mBRvrq2SXmdG_fh77SU5-257">
          <mxGeometry x="10" width="10" height="10" as="geometry" />
        </mxCell>
        <mxCell id="mBRvrq2SXmdG_fh77SU5-260" value="" style="whiteSpace=wrap;html=1;aspect=fixed;fillColor=#FFFFFF;strokeColor=#CFCFCF;fontColor=#333333;strokeWidth=2;rotation=90;" vertex="1" parent="mBRvrq2SXmdG_fh77SU5-257">
          <mxGeometry x="10" y="10" width="10" height="10" as="geometry" />
        </mxCell>
        <mxCell id="mBRvrq2SXmdG_fh77SU5-265" value="" style="group;rotation=90;" vertex="1" connectable="0" parent="mBRvrq2SXmdG_fh77SU5-257">
          <mxGeometry x="20" width="30" height="10" as="geometry" />
        </mxCell>
        <mxCell id="mBRvrq2SXmdG_fh77SU5-266" value="" style="whiteSpace=wrap;html=1;aspect=fixed;fillColor=#FFFFFF;strokeColor=#CFCFCF;fontColor=#333333;strokeWidth=2;rotation=90;" vertex="1" parent="mBRvrq2SXmdG_fh77SU5-265">
          <mxGeometry x="10" y="-10" width="10" height="10" as="geometry" />
        </mxCell>
        <mxCell id="mBRvrq2SXmdG_fh77SU5-267" value="" style="whiteSpace=wrap;html=1;aspect=fixed;fillColor=#FFFFFF;strokeColor=#CFCFCF;fontColor=#333333;strokeWidth=2;rotation=90;" vertex="1" parent="mBRvrq2SXmdG_fh77SU5-265">
          <mxGeometry x="10" width="10" height="10" as="geometry" />
        </mxCell>
        <mxCell id="mBRvrq2SXmdG_fh77SU5-268" value="" style="whiteSpace=wrap;html=1;aspect=fixed;fillColor=#FFFFFF;strokeColor=#CFCFCF;fontColor=#333333;strokeWidth=2;rotation=90;" vertex="1" parent="mBRvrq2SXmdG_fh77SU5-265">
          <mxGeometry x="10" y="10" width="10" height="10" as="geometry" />
        </mxCell>
        <mxCell id="mBRvrq2SXmdG_fh77SU5-261" value="" style="group" vertex="1" connectable="0" parent="mBRvrq2SXmdG_fh77SU5-257">
          <mxGeometry x="10" y="10" width="30" height="10" as="geometry" />
        </mxCell>
        <mxCell id="mBRvrq2SXmdG_fh77SU5-262" value="" style="whiteSpace=wrap;html=1;aspect=fixed;fillColor=#FFFFFF;strokeColor=#CFCFCF;fontColor=#333333;strokeWidth=2;" vertex="1" parent="mBRvrq2SXmdG_fh77SU5-261">
          <mxGeometry width="10" height="10" as="geometry" />
        </mxCell>
        <mxCell id="mBRvrq2SXmdG_fh77SU5-263" value="" style="whiteSpace=wrap;html=1;aspect=fixed;fillColor=#FFFFFF;strokeColor=#CFCFCF;fontColor=#333333;strokeWidth=2;" vertex="1" parent="mBRvrq2SXmdG_fh77SU5-261">
          <mxGeometry x="10" width="10" height="10" as="geometry" />
        </mxCell>
        <mxCell id="mBRvrq2SXmdG_fh77SU5-264" value="" style="whiteSpace=wrap;html=1;aspect=fixed;fillColor=#FFFFFF;strokeColor=#CFCFCF;fontColor=#333333;strokeWidth=2;" vertex="1" parent="mBRvrq2SXmdG_fh77SU5-261">
          <mxGeometry x="20" width="10" height="10" as="geometry" />
        </mxCell>
        <mxCell id="mBRvrq2SXmdG_fh77SU5-269" value="" style="group" vertex="1" connectable="0" parent="mBRvrq2SXmdG_fh77SU5-317">
          <mxGeometry x="120" y="5" width="30" height="10" as="geometry" />
        </mxCell>
        <mxCell id="mBRvrq2SXmdG_fh77SU5-270" value="" style="whiteSpace=wrap;html=1;aspect=fixed;fillColor=#FFFFFF;strokeColor=#CFCFCF;fontColor=#333333;strokeWidth=2;" vertex="1" parent="mBRvrq2SXmdG_fh77SU5-269">
          <mxGeometry width="10" height="10" as="geometry" />
        </mxCell>
        <mxCell id="mBRvrq2SXmdG_fh77SU5-271" value="" style="whiteSpace=wrap;html=1;aspect=fixed;fillColor=#FFFFFF;strokeColor=#CFCFCF;fontColor=#333333;strokeWidth=2;" vertex="1" parent="mBRvrq2SXmdG_fh77SU5-269">
          <mxGeometry x="10" width="10" height="10" as="geometry" />
        </mxCell>
        <mxCell id="mBRvrq2SXmdG_fh77SU5-272" value="" style="whiteSpace=wrap;html=1;aspect=fixed;fillColor=#FFFFFF;strokeColor=#CFCFCF;fontColor=#333333;strokeWidth=2;" vertex="1" parent="mBRvrq2SXmdG_fh77SU5-269">
          <mxGeometry x="20" width="10" height="10" as="geometry" />
        </mxCell>
        <mxCell id="mBRvrq2SXmdG_fh77SU5-273" value="" style="group;rotation=90;" vertex="1" connectable="0" parent="mBRvrq2SXmdG_fh77SU5-317">
          <mxGeometry x="110" y="25" width="30" height="10" as="geometry" />
        </mxCell>
        <mxCell id="mBRvrq2SXmdG_fh77SU5-274" value="" style="whiteSpace=wrap;html=1;aspect=fixed;fillColor=#FFFFFF;strokeColor=#CFCFCF;fontColor=#333333;strokeWidth=2;rotation=90;" vertex="1" parent="mBRvrq2SXmdG_fh77SU5-273">
          <mxGeometry x="10" y="-10" width="10" height="10" as="geometry" />
        </mxCell>
        <mxCell id="mBRvrq2SXmdG_fh77SU5-275" value="" style="whiteSpace=wrap;html=1;aspect=fixed;fillColor=#FFFFFF;strokeColor=#CFCFCF;fontColor=#333333;strokeWidth=2;rotation=90;" vertex="1" parent="mBRvrq2SXmdG_fh77SU5-273">
          <mxGeometry x="10" width="10" height="10" as="geometry" />
        </mxCell>
        <mxCell id="mBRvrq2SXmdG_fh77SU5-276" value="" style="whiteSpace=wrap;html=1;aspect=fixed;fillColor=#FFFFFF;strokeColor=#CFCFCF;fontColor=#333333;strokeWidth=2;rotation=90;" vertex="1" parent="mBRvrq2SXmdG_fh77SU5-273">
          <mxGeometry x="10" y="10" width="10" height="10" as="geometry" />
        </mxCell>
        <mxCell id="mBRvrq2SXmdG_fh77SU5-277" value="" style="group;rotation=90;" vertex="1" connectable="0" parent="mBRvrq2SXmdG_fh77SU5-317">
          <mxGeometry x="130" y="25" width="30" height="10" as="geometry" />
        </mxCell>
        <mxCell id="mBRvrq2SXmdG_fh77SU5-278" value="" style="whiteSpace=wrap;html=1;aspect=fixed;fillColor=#FFFFFF;strokeColor=#CFCFCF;fontColor=#333333;strokeWidth=2;rotation=90;" vertex="1" parent="mBRvrq2SXmdG_fh77SU5-277">
          <mxGeometry x="10" y="-10" width="10" height="10" as="geometry" />
        </mxCell>
        <mxCell id="mBRvrq2SXmdG_fh77SU5-279" value="" style="whiteSpace=wrap;html=1;aspect=fixed;fillColor=#FFFFFF;strokeColor=#CFCFCF;fontColor=#333333;strokeWidth=2;rotation=90;" vertex="1" parent="mBRvrq2SXmdG_fh77SU5-277">
          <mxGeometry x="10" width="10" height="10" as="geometry" />
        </mxCell>
        <mxCell id="mBRvrq2SXmdG_fh77SU5-280" value="" style="whiteSpace=wrap;html=1;aspect=fixed;fillColor=#FFFFFF;strokeColor=#CFCFCF;fontColor=#333333;strokeWidth=2;rotation=90;" vertex="1" parent="mBRvrq2SXmdG_fh77SU5-277">
          <mxGeometry x="10" y="10" width="10" height="10" as="geometry" />
        </mxCell>
        <mxCell id="mBRvrq2SXmdG_fh77SU5-281" value="" style="group" vertex="1" connectable="0" parent="mBRvrq2SXmdG_fh77SU5-317">
          <mxGeometry x="120" y="35" width="30" height="10" as="geometry" />
        </mxCell>
        <mxCell id="mBRvrq2SXmdG_fh77SU5-282" value="" style="whiteSpace=wrap;html=1;aspect=fixed;fillColor=#FFFFFF;strokeColor=#CFCFCF;fontColor=#333333;strokeWidth=2;" vertex="1" parent="mBRvrq2SXmdG_fh77SU5-281">
          <mxGeometry width="10" height="10" as="geometry" />
        </mxCell>
        <mxCell id="mBRvrq2SXmdG_fh77SU5-283" value="" style="whiteSpace=wrap;html=1;aspect=fixed;fillColor=#FFFFFF;strokeColor=#CFCFCF;fontColor=#333333;strokeWidth=2;" vertex="1" parent="mBRvrq2SXmdG_fh77SU5-281">
          <mxGeometry x="10" width="10" height="10" as="geometry" />
        </mxCell>
        <mxCell id="mBRvrq2SXmdG_fh77SU5-284" value="" style="whiteSpace=wrap;html=1;aspect=fixed;fillColor=#FFFFFF;strokeColor=#CFCFCF;fontColor=#333333;strokeWidth=2;" vertex="1" parent="mBRvrq2SXmdG_fh77SU5-281">
          <mxGeometry x="20" width="10" height="10" as="geometry" />
        </mxCell>
        <mxCell id="mBRvrq2SXmdG_fh77SU5-285" value="" style="group;rotation=90;" vertex="1" connectable="0" parent="mBRvrq2SXmdG_fh77SU5-317">
          <mxGeometry x="110" y="55" width="30" height="10" as="geometry" />
        </mxCell>
        <mxCell id="mBRvrq2SXmdG_fh77SU5-286" value="" style="whiteSpace=wrap;html=1;aspect=fixed;fillColor=#FFFFFF;strokeColor=#CFCFCF;fontColor=#333333;strokeWidth=2;rotation=90;" vertex="1" parent="mBRvrq2SXmdG_fh77SU5-285">
          <mxGeometry x="10" y="-10" width="10" height="10" as="geometry" />
        </mxCell>
        <mxCell id="mBRvrq2SXmdG_fh77SU5-287" value="" style="whiteSpace=wrap;html=1;aspect=fixed;fillColor=#FFFFFF;strokeColor=#CFCFCF;fontColor=#333333;strokeWidth=2;rotation=90;" vertex="1" parent="mBRvrq2SXmdG_fh77SU5-285">
          <mxGeometry x="10" width="10" height="10" as="geometry" />
        </mxCell>
        <mxCell id="mBRvrq2SXmdG_fh77SU5-288" value="" style="whiteSpace=wrap;html=1;aspect=fixed;fillColor=#FFFFFF;strokeColor=#CFCFCF;fontColor=#333333;strokeWidth=2;rotation=90;" vertex="1" parent="mBRvrq2SXmdG_fh77SU5-285">
          <mxGeometry x="10" y="10" width="10" height="10" as="geometry" />
        </mxCell>
        <mxCell id="mBRvrq2SXmdG_fh77SU5-296" value="" style="whiteSpace=wrap;html=1;aspect=fixed;fillColor=#FFFFFF;strokeColor=#CFCFCF;fontColor=#333333;strokeWidth=2;container=0;" vertex="1" parent="mBRvrq2SXmdG_fh77SU5-317">
          <mxGeometry x="130" y="45" width="10" height="10" as="geometry" />
        </mxCell>
        <mxCell id="mBRvrq2SXmdG_fh77SU5-298" value="" style="whiteSpace=wrap;html=1;aspect=fixed;fillColor=#FFFFFF;strokeColor=#CFCFCF;fontColor=#333333;strokeWidth=2;container=0;" vertex="1" parent="mBRvrq2SXmdG_fh77SU5-317">
          <mxGeometry x="140" y="55" width="10" height="10" as="geometry" />
        </mxCell>
        <mxCell id="mBRvrq2SXmdG_fh77SU5-300" value="" style="whiteSpace=wrap;html=1;aspect=fixed;fillColor=#FFFFFF;strokeColor=#CFCFCF;fontColor=#333333;strokeWidth=2;container=0;" vertex="1" parent="mBRvrq2SXmdG_fh77SU5-317">
          <mxGeometry x="140" y="65" width="10" height="10" as="geometry" />
        </mxCell>
        <mxCell id="mBRvrq2SXmdG_fh77SU5-301" value="" style="group;rotation=90;" vertex="1" connectable="0" parent="mBRvrq2SXmdG_fh77SU5-317">
          <mxGeometry x="150" y="15" width="40" height="10" as="geometry" />
        </mxCell>
        <mxCell id="mBRvrq2SXmdG_fh77SU5-302" value="" style="whiteSpace=wrap;html=1;aspect=fixed;fillColor=#FFFFFF;strokeColor=#CFCFCF;fontColor=#333333;strokeWidth=2;rotation=90;" vertex="1" parent="mBRvrq2SXmdG_fh77SU5-301">
          <mxGeometry x="10" y="-10" width="10" height="10" as="geometry" />
        </mxCell>
        <mxCell id="mBRvrq2SXmdG_fh77SU5-303" value="" style="whiteSpace=wrap;html=1;aspect=fixed;fillColor=#FFFFFF;strokeColor=#CFCFCF;fontColor=#333333;strokeWidth=2;rotation=90;" vertex="1" parent="mBRvrq2SXmdG_fh77SU5-301">
          <mxGeometry x="10" width="10" height="10" as="geometry" />
        </mxCell>
        <mxCell id="mBRvrq2SXmdG_fh77SU5-304" value="" style="whiteSpace=wrap;html=1;aspect=fixed;fillColor=#FFFFFF;strokeColor=#CFCFCF;fontColor=#333333;strokeWidth=2;rotation=90;" vertex="1" parent="mBRvrq2SXmdG_fh77SU5-301">
          <mxGeometry x="10" y="10" width="10" height="10" as="geometry" />
        </mxCell>
        <mxCell id="mBRvrq2SXmdG_fh77SU5-289" value="" style="group;rotation=-180;" vertex="1" connectable="0" parent="mBRvrq2SXmdG_fh77SU5-301">
          <mxGeometry x="10" y="-10" width="30" height="10" as="geometry" />
        </mxCell>
        <mxCell id="mBRvrq2SXmdG_fh77SU5-290" value="" style="whiteSpace=wrap;html=1;aspect=fixed;fillColor=#FFFFFF;strokeColor=#CFCFCF;fontColor=#333333;strokeWidth=2;rotation=-180;" vertex="1" parent="mBRvrq2SXmdG_fh77SU5-289">
          <mxGeometry x="20" width="10" height="10" as="geometry" />
        </mxCell>
        <mxCell id="mBRvrq2SXmdG_fh77SU5-291" value="" style="whiteSpace=wrap;html=1;aspect=fixed;fillColor=#FFFFFF;strokeColor=#CFCFCF;fontColor=#333333;strokeWidth=2;rotation=-180;" vertex="1" parent="mBRvrq2SXmdG_fh77SU5-289">
          <mxGeometry x="10" width="10" height="10" as="geometry" />
        </mxCell>
        <mxCell id="mBRvrq2SXmdG_fh77SU5-292" value="" style="whiteSpace=wrap;html=1;aspect=fixed;fillColor=#FFFFFF;strokeColor=#CFCFCF;fontColor=#333333;strokeWidth=2;rotation=-180;" vertex="1" parent="mBRvrq2SXmdG_fh77SU5-289">
          <mxGeometry width="10" height="10" as="geometry" />
        </mxCell>
        <mxCell id="mBRvrq2SXmdG_fh77SU5-305" value="" style="group;rotation=90;" vertex="1" connectable="0" parent="mBRvrq2SXmdG_fh77SU5-317">
          <mxGeometry x="150" y="45" width="30" height="10" as="geometry" />
        </mxCell>
        <mxCell id="mBRvrq2SXmdG_fh77SU5-306" value="" style="whiteSpace=wrap;html=1;aspect=fixed;fillColor=#FFFFFF;strokeColor=#CFCFCF;fontColor=#333333;strokeWidth=2;rotation=90;" vertex="1" parent="mBRvrq2SXmdG_fh77SU5-305">
          <mxGeometry x="10" y="-10" width="10" height="10" as="geometry" />
        </mxCell>
        <mxCell id="mBRvrq2SXmdG_fh77SU5-307" value="" style="whiteSpace=wrap;html=1;aspect=fixed;fillColor=#FFFFFF;strokeColor=#CFCFCF;fontColor=#333333;strokeWidth=2;rotation=90;" vertex="1" parent="mBRvrq2SXmdG_fh77SU5-305">
          <mxGeometry x="10" width="10" height="10" as="geometry" />
        </mxCell>
        <mxCell id="mBRvrq2SXmdG_fh77SU5-308" value="" style="whiteSpace=wrap;html=1;aspect=fixed;fillColor=#FFFFFF;strokeColor=#CFCFCF;fontColor=#333333;strokeWidth=2;rotation=90;" vertex="1" parent="mBRvrq2SXmdG_fh77SU5-305">
          <mxGeometry x="10" y="10" width="10" height="10" as="geometry" />
        </mxCell>
        <mxCell id="mBRvrq2SXmdG_fh77SU5-309" value="" style="group;rotation=-180;" vertex="1" connectable="0" parent="mBRvrq2SXmdG_fh77SU5-317">
          <mxGeometry x="160" y="65" width="30" height="10" as="geometry" />
        </mxCell>
        <mxCell id="mBRvrq2SXmdG_fh77SU5-310" value="" style="whiteSpace=wrap;html=1;aspect=fixed;fillColor=#FFFFFF;strokeColor=#CFCFCF;fontColor=#333333;strokeWidth=2;rotation=-180;" vertex="1" parent="mBRvrq2SXmdG_fh77SU5-309">
          <mxGeometry x="20" width="10" height="10" as="geometry" />
        </mxCell>
        <mxCell id="mBRvrq2SXmdG_fh77SU5-311" value="" style="whiteSpace=wrap;html=1;aspect=fixed;fillColor=#FFFFFF;strokeColor=#CFCFCF;fontColor=#333333;strokeWidth=2;rotation=-180;" vertex="1" parent="mBRvrq2SXmdG_fh77SU5-309">
          <mxGeometry x="10" width="10" height="10" as="geometry" />
        </mxCell>
        <mxCell id="mBRvrq2SXmdG_fh77SU5-312" value="" style="whiteSpace=wrap;html=1;aspect=fixed;fillColor=#FFFFFF;strokeColor=#CFCFCF;fontColor=#333333;strokeWidth=2;rotation=-180;" vertex="1" parent="mBRvrq2SXmdG_fh77SU5-309">
          <mxGeometry width="10" height="10" as="geometry" />
        </mxCell>
        <mxCell id="mBRvrq2SXmdG_fh77SU5-313" value="" style="group;rotation=-180;" vertex="1" connectable="0" parent="mBRvrq2SXmdG_fh77SU5-317">
          <mxGeometry x="160" y="35" width="30" height="10" as="geometry" />
        </mxCell>
        <mxCell id="mBRvrq2SXmdG_fh77SU5-314" value="" style="whiteSpace=wrap;html=1;aspect=fixed;fillColor=#FFFFFF;strokeColor=#CFCFCF;fontColor=#333333;strokeWidth=2;rotation=-180;" vertex="1" parent="mBRvrq2SXmdG_fh77SU5-313">
          <mxGeometry x="20" width="10" height="10" as="geometry" />
        </mxCell>
        <mxCell id="mBRvrq2SXmdG_fh77SU5-315" value="" style="whiteSpace=wrap;html=1;aspect=fixed;fillColor=#FFFFFF;strokeColor=#CFCFCF;fontColor=#333333;strokeWidth=2;rotation=-180;" vertex="1" parent="mBRvrq2SXmdG_fh77SU5-313">
          <mxGeometry x="10" width="10" height="10" as="geometry" />
        </mxCell>
        <mxCell id="mBRvrq2SXmdG_fh77SU5-316" value="" style="whiteSpace=wrap;html=1;aspect=fixed;fillColor=#FFFFFF;strokeColor=#CFCFCF;fontColor=#333333;strokeWidth=2;rotation=-180;" vertex="1" parent="mBRvrq2SXmdG_fh77SU5-313">
          <mxGeometry width="10" height="10" as="geometry" />
        </mxCell>
        <mxCell id="mBRvrq2SXmdG_fh77SU5-319" value="" style="whiteSpace=wrap;html=1;aspect=fixed;fillColor=#FFFFFF;strokeColor=#CFCFCF;fontColor=#333333;strokeWidth=2;rotation=90;container=0;" vertex="1" parent="1">
          <mxGeometry x="290" y="180" width="10" height="10" as="geometry" />
        </mxCell>
        <mxCell id="mBRvrq2SXmdG_fh77SU5-320" value="" style="whiteSpace=wrap;html=1;aspect=fixed;fillColor=#FFFFFF;strokeColor=#CFCFCF;fontColor=#333333;strokeWidth=2;rotation=90;container=0;" vertex="1" parent="1">
          <mxGeometry x="290" y="170" width="10" height="10" as="geometry" />
        </mxCell>
        <mxCell id="mBRvrq2SXmdG_fh77SU5-321" value="" style="whiteSpace=wrap;html=1;aspect=fixed;fillColor=#FFFFFF;strokeColor=#CFCFCF;fontColor=#333333;strokeWidth=2;rotation=90;container=0;" vertex="1" parent="1">
          <mxGeometry x="290" y="205" width="10" height="10" as="geometry" />
        </mxCell>
        <mxCell id="mBRvrq2SXmdG_fh77SU5-322" value="" style="whiteSpace=wrap;html=1;aspect=fixed;fillColor=#FFFFFF;strokeColor=#CFCFCF;fontColor=#333333;strokeWidth=2;rotation=90;container=0;" vertex="1" parent="1">
          <mxGeometry x="290" y="215" width="10" height="10" as="geometry" />
        </mxCell>
        <mxCell id="mBRvrq2SXmdG_fh77SU5-351" value="" style="group" vertex="1" connectable="0" parent="1">
          <mxGeometry x="310" y="160" width="30" height="70" as="geometry" />
        </mxCell>
        <mxCell id="mBRvrq2SXmdG_fh77SU5-326" value="" style="group" vertex="1" connectable="0" parent="mBRvrq2SXmdG_fh77SU5-351">
          <mxGeometry width="10" height="30" as="geometry" />
        </mxCell>
        <mxCell id="mBRvrq2SXmdG_fh77SU5-323" value="" style="whiteSpace=wrap;html=1;aspect=fixed;fillColor=#FFFFFF;strokeColor=#CFCFCF;fontColor=#333333;strokeWidth=2;rotation=90;container=0;" vertex="1" parent="mBRvrq2SXmdG_fh77SU5-326">
          <mxGeometry y="10" width="10" height="10" as="geometry" />
        </mxCell>
        <mxCell id="mBRvrq2SXmdG_fh77SU5-324" value="" style="whiteSpace=wrap;html=1;aspect=fixed;fillColor=#FFFFFF;strokeColor=#CFCFCF;fontColor=#333333;strokeWidth=2;rotation=90;container=0;" vertex="1" parent="mBRvrq2SXmdG_fh77SU5-326">
          <mxGeometry width="10" height="10" as="geometry" />
        </mxCell>
        <mxCell id="mBRvrq2SXmdG_fh77SU5-325" value="" style="whiteSpace=wrap;html=1;aspect=fixed;fillColor=#FFFFFF;strokeColor=#CFCFCF;fontColor=#333333;strokeWidth=2;rotation=90;container=0;" vertex="1" parent="mBRvrq2SXmdG_fh77SU5-326">
          <mxGeometry y="20" width="10" height="10" as="geometry" />
        </mxCell>
        <mxCell id="mBRvrq2SXmdG_fh77SU5-327" value="" style="group" vertex="1" connectable="0" parent="mBRvrq2SXmdG_fh77SU5-351">
          <mxGeometry y="20" width="10" height="30" as="geometry" />
        </mxCell>
        <mxCell id="mBRvrq2SXmdG_fh77SU5-328" value="" style="whiteSpace=wrap;html=1;aspect=fixed;fillColor=#FFFFFF;strokeColor=#CFCFCF;fontColor=#333333;strokeWidth=2;rotation=90;container=0;" vertex="1" parent="mBRvrq2SXmdG_fh77SU5-327">
          <mxGeometry y="10" width="10" height="10" as="geometry" />
        </mxCell>
        <mxCell id="mBRvrq2SXmdG_fh77SU5-329" value="" style="whiteSpace=wrap;html=1;aspect=fixed;fillColor=#FFFFFF;strokeColor=#CFCFCF;fontColor=#333333;strokeWidth=2;rotation=90;container=0;" vertex="1" parent="mBRvrq2SXmdG_fh77SU5-327">
          <mxGeometry width="10" height="10" as="geometry" />
        </mxCell>
        <mxCell id="mBRvrq2SXmdG_fh77SU5-330" value="" style="whiteSpace=wrap;html=1;aspect=fixed;fillColor=#FFFFFF;strokeColor=#CFCFCF;fontColor=#333333;strokeWidth=2;rotation=90;container=0;" vertex="1" parent="mBRvrq2SXmdG_fh77SU5-327">
          <mxGeometry y="20" width="10" height="10" as="geometry" />
        </mxCell>
        <mxCell id="mBRvrq2SXmdG_fh77SU5-331" value="" style="group" vertex="1" connectable="0" parent="mBRvrq2SXmdG_fh77SU5-351">
          <mxGeometry y="40" width="10" height="30" as="geometry" />
        </mxCell>
        <mxCell id="mBRvrq2SXmdG_fh77SU5-332" value="" style="whiteSpace=wrap;html=1;aspect=fixed;fillColor=#FFFFFF;strokeColor=#CFCFCF;fontColor=#333333;strokeWidth=2;rotation=90;container=0;" vertex="1" parent="mBRvrq2SXmdG_fh77SU5-331">
          <mxGeometry y="10" width="10" height="10" as="geometry" />
        </mxCell>
        <mxCell id="mBRvrq2SXmdG_fh77SU5-333" value="" style="whiteSpace=wrap;html=1;aspect=fixed;fillColor=#FFFFFF;strokeColor=#CFCFCF;fontColor=#333333;strokeWidth=2;rotation=90;container=0;" vertex="1" parent="mBRvrq2SXmdG_fh77SU5-331">
          <mxGeometry width="10" height="10" as="geometry" />
        </mxCell>
        <mxCell id="mBRvrq2SXmdG_fh77SU5-334" value="" style="whiteSpace=wrap;html=1;aspect=fixed;fillColor=#FFFFFF;strokeColor=#CFCFCF;fontColor=#333333;strokeWidth=2;rotation=90;container=0;" vertex="1" parent="mBRvrq2SXmdG_fh77SU5-331">
          <mxGeometry y="20" width="10" height="10" as="geometry" />
        </mxCell>
        <mxCell id="mBRvrq2SXmdG_fh77SU5-335" value="" style="group" vertex="1" connectable="0" parent="mBRvrq2SXmdG_fh77SU5-351">
          <mxGeometry x="20" y="40" width="10" height="30" as="geometry" />
        </mxCell>
        <mxCell id="mBRvrq2SXmdG_fh77SU5-336" value="" style="whiteSpace=wrap;html=1;aspect=fixed;fillColor=#FFFFFF;strokeColor=#CFCFCF;fontColor=#333333;strokeWidth=2;rotation=90;container=0;" vertex="1" parent="mBRvrq2SXmdG_fh77SU5-335">
          <mxGeometry y="10" width="10" height="10" as="geometry" />
        </mxCell>
        <mxCell id="mBRvrq2SXmdG_fh77SU5-337" value="" style="whiteSpace=wrap;html=1;aspect=fixed;fillColor=#FFFFFF;strokeColor=#CFCFCF;fontColor=#333333;strokeWidth=2;rotation=90;container=0;" vertex="1" parent="mBRvrq2SXmdG_fh77SU5-335">
          <mxGeometry width="10" height="10" as="geometry" />
        </mxCell>
        <mxCell id="mBRvrq2SXmdG_fh77SU5-338" value="" style="whiteSpace=wrap;html=1;aspect=fixed;fillColor=#FFFFFF;strokeColor=#CFCFCF;fontColor=#333333;strokeWidth=2;rotation=90;container=0;" vertex="1" parent="mBRvrq2SXmdG_fh77SU5-335">
          <mxGeometry y="20" width="10" height="10" as="geometry" />
        </mxCell>
        <mxCell id="mBRvrq2SXmdG_fh77SU5-339" value="" style="group;rotation=90;" vertex="1" connectable="0" parent="mBRvrq2SXmdG_fh77SU5-351">
          <mxGeometry x="10" y="50" width="10" height="30" as="geometry" />
        </mxCell>
        <mxCell id="mBRvrq2SXmdG_fh77SU5-340" value="" style="whiteSpace=wrap;html=1;aspect=fixed;fillColor=#FFFFFF;strokeColor=#CFCFCF;fontColor=#333333;strokeWidth=2;rotation=180;container=0;" vertex="1" parent="mBRvrq2SXmdG_fh77SU5-339">
          <mxGeometry y="10" width="10" height="10" as="geometry" />
        </mxCell>
        <mxCell id="mBRvrq2SXmdG_fh77SU5-341" value="" style="whiteSpace=wrap;html=1;aspect=fixed;fillColor=#FFFFFF;strokeColor=#CFCFCF;fontColor=#333333;strokeWidth=2;rotation=180;container=0;" vertex="1" parent="mBRvrq2SXmdG_fh77SU5-339">
          <mxGeometry x="10" y="10" width="10" height="10" as="geometry" />
        </mxCell>
        <mxCell id="mBRvrq2SXmdG_fh77SU5-342" value="" style="whiteSpace=wrap;html=1;aspect=fixed;fillColor=#FFFFFF;strokeColor=#CFCFCF;fontColor=#333333;strokeWidth=2;rotation=180;container=0;" vertex="1" parent="mBRvrq2SXmdG_fh77SU5-339">
          <mxGeometry x="-10" y="10" width="10" height="10" as="geometry" />
        </mxCell>
        <mxCell id="mBRvrq2SXmdG_fh77SU5-343" value="" style="group" vertex="1" connectable="0" parent="mBRvrq2SXmdG_fh77SU5-351">
          <mxGeometry x="20" y="10" width="10" height="30" as="geometry" />
        </mxCell>
        <mxCell id="mBRvrq2SXmdG_fh77SU5-344" value="" style="whiteSpace=wrap;html=1;aspect=fixed;fillColor=#FFFFFF;strokeColor=#CFCFCF;fontColor=#333333;strokeWidth=2;rotation=90;container=0;" vertex="1" parent="mBRvrq2SXmdG_fh77SU5-343">
          <mxGeometry y="10" width="10" height="10" as="geometry" />
        </mxCell>
        <mxCell id="mBRvrq2SXmdG_fh77SU5-345" value="" style="whiteSpace=wrap;html=1;aspect=fixed;fillColor=#FFFFFF;strokeColor=#CFCFCF;fontColor=#333333;strokeWidth=2;rotation=90;container=0;" vertex="1" parent="mBRvrq2SXmdG_fh77SU5-343">
          <mxGeometry width="10" height="10" as="geometry" />
        </mxCell>
        <mxCell id="mBRvrq2SXmdG_fh77SU5-346" value="" style="whiteSpace=wrap;html=1;aspect=fixed;fillColor=#FFFFFF;strokeColor=#CFCFCF;fontColor=#333333;strokeWidth=2;rotation=90;container=0;" vertex="1" parent="mBRvrq2SXmdG_fh77SU5-343">
          <mxGeometry y="20" width="10" height="10" as="geometry" />
        </mxCell>
        <mxCell id="mBRvrq2SXmdG_fh77SU5-347" value="" style="group;rotation=90;" vertex="1" connectable="0" parent="mBRvrq2SXmdG_fh77SU5-351">
          <mxGeometry x="10" y="-10" width="10" height="30" as="geometry" />
        </mxCell>
        <mxCell id="mBRvrq2SXmdG_fh77SU5-348" value="" style="whiteSpace=wrap;html=1;aspect=fixed;fillColor=#FFFFFF;strokeColor=#CFCFCF;fontColor=#333333;strokeWidth=2;rotation=180;container=0;" vertex="1" parent="mBRvrq2SXmdG_fh77SU5-347">
          <mxGeometry y="10" width="10" height="10" as="geometry" />
        </mxCell>
        <mxCell id="mBRvrq2SXmdG_fh77SU5-349" value="" style="whiteSpace=wrap;html=1;aspect=fixed;fillColor=#FFFFFF;strokeColor=#CFCFCF;fontColor=#333333;strokeWidth=2;rotation=180;container=0;" vertex="1" parent="mBRvrq2SXmdG_fh77SU5-347">
          <mxGeometry x="10" y="10" width="10" height="10" as="geometry" />
        </mxCell>
        <mxCell id="mBRvrq2SXmdG_fh77SU5-350" value="" style="whiteSpace=wrap;html=1;aspect=fixed;fillColor=#FFFFFF;strokeColor=#CFCFCF;fontColor=#333333;strokeWidth=2;rotation=180;container=0;" vertex="1" parent="mBRvrq2SXmdG_fh77SU5-347">
          <mxGeometry x="-10" y="10" width="10" height="10" as="geometry" />
        </mxCell>
        <mxCell id="mBRvrq2SXmdG_fh77SU5-352" value="" style="group" vertex="1" connectable="0" parent="1">
          <mxGeometry x="400" y="160" width="220" height="440" as="geometry" />
        </mxCell>
        <mxCell id="mBRvrq2SXmdG_fh77SU5-2" value="" style="whiteSpace=wrap;html=1;aspect=fixed;fillColor=#828282;strokeColor=#454545;fontColor=#333333;strokeWidth=2;" vertex="1" parent="mBRvrq2SXmdG_fh77SU5-352">
          <mxGeometry x="20" width="20" height="20" as="geometry" />
        </mxCell>
        <mxCell id="mBRvrq2SXmdG_fh77SU5-67" value="" style="whiteSpace=wrap;html=1;aspect=fixed;fillColor=#828282;strokeColor=#454545;fontColor=#333333;strokeWidth=2;" vertex="1" parent="mBRvrq2SXmdG_fh77SU5-352">
          <mxGeometry x="40" width="20" height="20" as="geometry" />
        </mxCell>
        <mxCell id="mBRvrq2SXmdG_fh77SU5-68" value="" style="whiteSpace=wrap;html=1;aspect=fixed;fillColor=#828282;strokeColor=#454545;fontColor=#333333;strokeWidth=2;" vertex="1" parent="mBRvrq2SXmdG_fh77SU5-352">
          <mxGeometry x="60" width="20" height="20" as="geometry" />
        </mxCell>
        <mxCell id="mBRvrq2SXmdG_fh77SU5-69" value="" style="whiteSpace=wrap;html=1;aspect=fixed;fillColor=#828282;strokeColor=#454545;fontColor=#333333;strokeWidth=2;" vertex="1" parent="mBRvrq2SXmdG_fh77SU5-352">
          <mxGeometry x="80" width="20" height="20" as="geometry" />
        </mxCell>
        <mxCell id="mBRvrq2SXmdG_fh77SU5-70" value="" style="whiteSpace=wrap;html=1;aspect=fixed;fillColor=#828282;strokeColor=#454545;fontColor=#333333;strokeWidth=2;" vertex="1" parent="mBRvrq2SXmdG_fh77SU5-352">
          <mxGeometry x="100" width="20" height="20" as="geometry" />
        </mxCell>
        <mxCell id="mBRvrq2SXmdG_fh77SU5-71" value="" style="whiteSpace=wrap;html=1;aspect=fixed;fillColor=#828282;strokeColor=#454545;fontColor=#333333;strokeWidth=2;" vertex="1" parent="mBRvrq2SXmdG_fh77SU5-352">
          <mxGeometry x="120" width="20" height="20" as="geometry" />
        </mxCell>
        <mxCell id="mBRvrq2SXmdG_fh77SU5-72" value="" style="whiteSpace=wrap;html=1;aspect=fixed;fillColor=#828282;strokeColor=#454545;fontColor=#333333;strokeWidth=2;" vertex="1" parent="mBRvrq2SXmdG_fh77SU5-352">
          <mxGeometry x="140" width="20" height="20" as="geometry" />
        </mxCell>
        <mxCell id="mBRvrq2SXmdG_fh77SU5-73" value="" style="whiteSpace=wrap;html=1;aspect=fixed;fillColor=#828282;strokeColor=#454545;fontColor=#333333;strokeWidth=2;" vertex="1" parent="mBRvrq2SXmdG_fh77SU5-352">
          <mxGeometry x="200" width="20" height="20" as="geometry" />
        </mxCell>
        <mxCell id="mBRvrq2SXmdG_fh77SU5-74" value="" style="whiteSpace=wrap;html=1;aspect=fixed;fillColor=#828282;strokeColor=#454545;fontColor=#333333;strokeWidth=2;" vertex="1" parent="mBRvrq2SXmdG_fh77SU5-352">
          <mxGeometry x="180" width="20" height="20" as="geometry" />
        </mxCell>
        <mxCell id="mBRvrq2SXmdG_fh77SU5-75" value="" style="whiteSpace=wrap;html=1;aspect=fixed;fillColor=#828282;strokeColor=#454545;fontColor=#333333;strokeWidth=2;" vertex="1" parent="mBRvrq2SXmdG_fh77SU5-352">
          <mxGeometry x="160" width="20" height="20" as="geometry" />
        </mxCell>
        <mxCell id="mBRvrq2SXmdG_fh77SU5-76" value="" style="whiteSpace=wrap;html=1;aspect=fixed;fillColor=#828282;strokeColor=#454545;fontColor=#333333;strokeWidth=2;" vertex="1" parent="mBRvrq2SXmdG_fh77SU5-352">
          <mxGeometry x="200" y="40" width="20" height="20" as="geometry" />
        </mxCell>
        <mxCell id="mBRvrq2SXmdG_fh77SU5-77" value="" style="whiteSpace=wrap;html=1;aspect=fixed;fillColor=#828282;strokeColor=#454545;fontColor=#333333;strokeWidth=2;" vertex="1" parent="mBRvrq2SXmdG_fh77SU5-352">
          <mxGeometry x="200" y="20" width="20" height="20" as="geometry" />
        </mxCell>
        <mxCell id="mBRvrq2SXmdG_fh77SU5-78" value="" style="whiteSpace=wrap;html=1;aspect=fixed;fillColor=#828282;strokeColor=#454545;fontColor=#333333;strokeWidth=2;" vertex="1" parent="mBRvrq2SXmdG_fh77SU5-352">
          <mxGeometry x="200" y="60" width="20" height="20" as="geometry" />
        </mxCell>
        <mxCell id="mBRvrq2SXmdG_fh77SU5-79" value="" style="whiteSpace=wrap;html=1;aspect=fixed;fillColor=#828282;strokeColor=#454545;fontColor=#333333;strokeWidth=2;" vertex="1" parent="mBRvrq2SXmdG_fh77SU5-352">
          <mxGeometry x="200" y="100" width="20" height="20" as="geometry" />
        </mxCell>
        <mxCell id="mBRvrq2SXmdG_fh77SU5-80" value="" style="whiteSpace=wrap;html=1;aspect=fixed;fillColor=#828282;strokeColor=#454545;fontColor=#333333;strokeWidth=2;" vertex="1" parent="mBRvrq2SXmdG_fh77SU5-352">
          <mxGeometry x="200" y="80" width="20" height="20" as="geometry" />
        </mxCell>
        <mxCell id="mBRvrq2SXmdG_fh77SU5-81" value="" style="whiteSpace=wrap;html=1;aspect=fixed;fillColor=#828282;strokeColor=#454545;fontColor=#333333;strokeWidth=2;" vertex="1" parent="mBRvrq2SXmdG_fh77SU5-352">
          <mxGeometry x="200" y="160" width="20" height="20" as="geometry" />
        </mxCell>
        <mxCell id="mBRvrq2SXmdG_fh77SU5-82" value="" style="whiteSpace=wrap;html=1;aspect=fixed;fillColor=#828282;strokeColor=#454545;fontColor=#333333;strokeWidth=2;" vertex="1" parent="mBRvrq2SXmdG_fh77SU5-352">
          <mxGeometry x="200" y="140" width="20" height="20" as="geometry" />
        </mxCell>
        <mxCell id="mBRvrq2SXmdG_fh77SU5-83" value="" style="whiteSpace=wrap;html=1;aspect=fixed;fillColor=#828282;strokeColor=#454545;fontColor=#333333;strokeWidth=2;" vertex="1" parent="mBRvrq2SXmdG_fh77SU5-352">
          <mxGeometry x="200" y="120" width="20" height="20" as="geometry" />
        </mxCell>
        <mxCell id="mBRvrq2SXmdG_fh77SU5-84" value="" style="whiteSpace=wrap;html=1;aspect=fixed;fillColor=#828282;strokeColor=#454545;fontColor=#333333;strokeWidth=2;" vertex="1" parent="mBRvrq2SXmdG_fh77SU5-352">
          <mxGeometry x="200" y="180" width="20" height="20" as="geometry" />
        </mxCell>
        <mxCell id="mBRvrq2SXmdG_fh77SU5-85" value="" style="whiteSpace=wrap;html=1;aspect=fixed;fillColor=#828282;strokeColor=#454545;fontColor=#333333;strokeWidth=2;" vertex="1" parent="mBRvrq2SXmdG_fh77SU5-352">
          <mxGeometry x="200" y="200" width="20" height="20" as="geometry" />
        </mxCell>
        <mxCell id="mBRvrq2SXmdG_fh77SU5-86" value="" style="whiteSpace=wrap;html=1;aspect=fixed;fillColor=#828282;strokeColor=#454545;fontColor=#333333;strokeWidth=2;" vertex="1" parent="mBRvrq2SXmdG_fh77SU5-352">
          <mxGeometry x="200" y="220" width="20" height="20" as="geometry" />
        </mxCell>
        <mxCell id="mBRvrq2SXmdG_fh77SU5-87" value="" style="whiteSpace=wrap;html=1;aspect=fixed;fillColor=#828282;strokeColor=#454545;fontColor=#333333;strokeWidth=2;" vertex="1" parent="mBRvrq2SXmdG_fh77SU5-352">
          <mxGeometry x="100" y="420" width="20" height="20" as="geometry" />
        </mxCell>
        <mxCell id="mBRvrq2SXmdG_fh77SU5-88" value="" style="whiteSpace=wrap;html=1;aspect=fixed;fillColor=#828282;strokeColor=#454545;fontColor=#333333;strokeWidth=2;" vertex="1" parent="mBRvrq2SXmdG_fh77SU5-352">
          <mxGeometry x="200" y="280" width="20" height="20" as="geometry" />
        </mxCell>
        <mxCell id="mBRvrq2SXmdG_fh77SU5-89" value="" style="whiteSpace=wrap;html=1;aspect=fixed;fillColor=#828282;strokeColor=#454545;fontColor=#333333;strokeWidth=2;" vertex="1" parent="mBRvrq2SXmdG_fh77SU5-352">
          <mxGeometry x="120" y="420" width="20" height="20" as="geometry" />
        </mxCell>
        <mxCell id="mBRvrq2SXmdG_fh77SU5-90" value="" style="whiteSpace=wrap;html=1;aspect=fixed;fillColor=#828282;strokeColor=#454545;fontColor=#333333;strokeWidth=2;" vertex="1" parent="mBRvrq2SXmdG_fh77SU5-352">
          <mxGeometry x="140" y="420" width="20" height="20" as="geometry" />
        </mxCell>
        <mxCell id="mBRvrq2SXmdG_fh77SU5-91" value="" style="whiteSpace=wrap;html=1;aspect=fixed;fillColor=#828282;strokeColor=#454545;fontColor=#333333;strokeWidth=2;" vertex="1" parent="mBRvrq2SXmdG_fh77SU5-352">
          <mxGeometry x="160" y="420" width="20" height="20" as="geometry" />
        </mxCell>
        <mxCell id="mBRvrq2SXmdG_fh77SU5-92" value="" style="whiteSpace=wrap;html=1;aspect=fixed;fillColor=#828282;strokeColor=#454545;fontColor=#333333;strokeWidth=2;" vertex="1" parent="mBRvrq2SXmdG_fh77SU5-352">
          <mxGeometry x="200" y="300" width="20" height="20" as="geometry" />
        </mxCell>
        <mxCell id="mBRvrq2SXmdG_fh77SU5-93" value="" style="whiteSpace=wrap;html=1;aspect=fixed;fillColor=#828282;strokeColor=#454545;fontColor=#333333;strokeWidth=2;" vertex="1" parent="mBRvrq2SXmdG_fh77SU5-352">
          <mxGeometry x="200" y="240" width="20" height="20" as="geometry" />
        </mxCell>
        <mxCell id="mBRvrq2SXmdG_fh77SU5-95" value="" style="whiteSpace=wrap;html=1;aspect=fixed;fillColor=#828282;strokeColor=#454545;fontColor=#333333;strokeWidth=2;" vertex="1" parent="mBRvrq2SXmdG_fh77SU5-352">
          <mxGeometry x="200" y="260" width="20" height="20" as="geometry" />
        </mxCell>
        <mxCell id="mBRvrq2SXmdG_fh77SU5-96" value="" style="whiteSpace=wrap;html=1;aspect=fixed;fillColor=#828282;strokeColor=#454545;fontColor=#333333;strokeWidth=2;" vertex="1" parent="mBRvrq2SXmdG_fh77SU5-352">
          <mxGeometry x="180" y="420" width="20" height="20" as="geometry" />
        </mxCell>
        <mxCell id="mBRvrq2SXmdG_fh77SU5-97" value="" style="whiteSpace=wrap;html=1;aspect=fixed;fillColor=#828282;strokeColor=#454545;fontColor=#333333;strokeWidth=2;" vertex="1" parent="mBRvrq2SXmdG_fh77SU5-352">
          <mxGeometry x="200" y="400" width="20" height="20" as="geometry" />
        </mxCell>
        <mxCell id="mBRvrq2SXmdG_fh77SU5-98" value="" style="whiteSpace=wrap;html=1;aspect=fixed;fillColor=#828282;strokeColor=#454545;fontColor=#333333;strokeWidth=2;" vertex="1" parent="mBRvrq2SXmdG_fh77SU5-352">
          <mxGeometry x="200" y="320" width="20" height="20" as="geometry" />
        </mxCell>
        <mxCell id="mBRvrq2SXmdG_fh77SU5-99" value="" style="whiteSpace=wrap;html=1;aspect=fixed;fillColor=#828282;strokeColor=#454545;fontColor=#333333;strokeWidth=2;" vertex="1" parent="mBRvrq2SXmdG_fh77SU5-352">
          <mxGeometry x="200" y="340" width="20" height="20" as="geometry" />
        </mxCell>
        <mxCell id="mBRvrq2SXmdG_fh77SU5-100" value="" style="whiteSpace=wrap;html=1;aspect=fixed;fillColor=#828282;strokeColor=#454545;fontColor=#333333;strokeWidth=2;" vertex="1" parent="mBRvrq2SXmdG_fh77SU5-352">
          <mxGeometry x="200" y="360" width="20" height="20" as="geometry" />
        </mxCell>
        <mxCell id="mBRvrq2SXmdG_fh77SU5-101" value="" style="whiteSpace=wrap;html=1;aspect=fixed;fillColor=#828282;strokeColor=#454545;fontColor=#333333;strokeWidth=2;" vertex="1" parent="mBRvrq2SXmdG_fh77SU5-352">
          <mxGeometry x="200" y="420" width="20" height="20" as="geometry" />
        </mxCell>
        <mxCell id="mBRvrq2SXmdG_fh77SU5-102" value="" style="whiteSpace=wrap;html=1;aspect=fixed;fillColor=#828282;strokeColor=#454545;fontColor=#333333;strokeWidth=2;" vertex="1" parent="mBRvrq2SXmdG_fh77SU5-352">
          <mxGeometry x="200" y="380" width="20" height="20" as="geometry" />
        </mxCell>
        <mxCell id="mBRvrq2SXmdG_fh77SU5-103" value="" style="whiteSpace=wrap;html=1;aspect=fixed;fillColor=#828282;strokeColor=#454545;fontColor=#333333;strokeWidth=2;" vertex="1" parent="mBRvrq2SXmdG_fh77SU5-352">
          <mxGeometry y="200" width="20" height="20" as="geometry" />
        </mxCell>
        <mxCell id="mBRvrq2SXmdG_fh77SU5-104" value="" style="whiteSpace=wrap;html=1;aspect=fixed;fillColor=#828282;strokeColor=#454545;fontColor=#333333;strokeWidth=2;" vertex="1" parent="mBRvrq2SXmdG_fh77SU5-352">
          <mxGeometry y="220" width="20" height="20" as="geometry" />
        </mxCell>
        <mxCell id="mBRvrq2SXmdG_fh77SU5-105" value="" style="whiteSpace=wrap;html=1;aspect=fixed;fillColor=#828282;strokeColor=#454545;fontColor=#333333;strokeWidth=2;" vertex="1" parent="mBRvrq2SXmdG_fh77SU5-352">
          <mxGeometry y="240" width="20" height="20" as="geometry" />
        </mxCell>
        <mxCell id="mBRvrq2SXmdG_fh77SU5-106" value="" style="whiteSpace=wrap;html=1;aspect=fixed;fillColor=#828282;strokeColor=#454545;fontColor=#333333;strokeWidth=2;" vertex="1" parent="mBRvrq2SXmdG_fh77SU5-352">
          <mxGeometry y="260" width="20" height="20" as="geometry" />
        </mxCell>
        <mxCell id="mBRvrq2SXmdG_fh77SU5-107" value="" style="whiteSpace=wrap;html=1;aspect=fixed;fillColor=#828282;strokeColor=#454545;fontColor=#333333;strokeWidth=2;" vertex="1" parent="mBRvrq2SXmdG_fh77SU5-352">
          <mxGeometry y="280" width="20" height="20" as="geometry" />
        </mxCell>
        <mxCell id="mBRvrq2SXmdG_fh77SU5-108" value="" style="whiteSpace=wrap;html=1;aspect=fixed;fillColor=#828282;strokeColor=#454545;fontColor=#333333;strokeWidth=2;" vertex="1" parent="mBRvrq2SXmdG_fh77SU5-352">
          <mxGeometry y="300" width="20" height="20" as="geometry" />
        </mxCell>
        <mxCell id="mBRvrq2SXmdG_fh77SU5-109" value="" style="whiteSpace=wrap;html=1;aspect=fixed;fillColor=#828282;strokeColor=#454545;fontColor=#333333;strokeWidth=2;" vertex="1" parent="mBRvrq2SXmdG_fh77SU5-352">
          <mxGeometry y="320" width="20" height="20" as="geometry" />
        </mxCell>
        <mxCell id="mBRvrq2SXmdG_fh77SU5-110" value="" style="whiteSpace=wrap;html=1;aspect=fixed;fillColor=#828282;strokeColor=#454545;fontColor=#333333;strokeWidth=2;" vertex="1" parent="mBRvrq2SXmdG_fh77SU5-352">
          <mxGeometry y="340" width="20" height="20" as="geometry" />
        </mxCell>
        <mxCell id="mBRvrq2SXmdG_fh77SU5-111" value="" style="whiteSpace=wrap;html=1;aspect=fixed;fillColor=#828282;strokeColor=#454545;fontColor=#333333;strokeWidth=2;" vertex="1" parent="mBRvrq2SXmdG_fh77SU5-352">
          <mxGeometry y="360" width="20" height="20" as="geometry" />
        </mxCell>
        <mxCell id="mBRvrq2SXmdG_fh77SU5-112" value="" style="whiteSpace=wrap;html=1;aspect=fixed;fillColor=#828282;strokeColor=#454545;fontColor=#333333;strokeWidth=2;" vertex="1" parent="mBRvrq2SXmdG_fh77SU5-352">
          <mxGeometry y="380" width="20" height="20" as="geometry" />
        </mxCell>
        <mxCell id="mBRvrq2SXmdG_fh77SU5-113" value="" style="whiteSpace=wrap;html=1;aspect=fixed;fillColor=#828282;strokeColor=#454545;fontColor=#333333;strokeWidth=2;" vertex="1" parent="mBRvrq2SXmdG_fh77SU5-352">
          <mxGeometry y="400" width="20" height="20" as="geometry" />
        </mxCell>
        <mxCell id="mBRvrq2SXmdG_fh77SU5-114" value="" style="whiteSpace=wrap;html=1;aspect=fixed;fillColor=#828282;strokeColor=#454545;fontColor=#333333;strokeWidth=2;" vertex="1" parent="mBRvrq2SXmdG_fh77SU5-352">
          <mxGeometry y="420" width="20" height="20" as="geometry" />
        </mxCell>
        <mxCell id="mBRvrq2SXmdG_fh77SU5-115" value="" style="whiteSpace=wrap;html=1;aspect=fixed;fillColor=#828282;strokeColor=#454545;fontColor=#333333;strokeWidth=2;" vertex="1" parent="mBRvrq2SXmdG_fh77SU5-352">
          <mxGeometry x="20" y="420" width="20" height="20" as="geometry" />
        </mxCell>
        <mxCell id="mBRvrq2SXmdG_fh77SU5-116" value="" style="whiteSpace=wrap;html=1;aspect=fixed;fillColor=#828282;strokeColor=#454545;fontColor=#333333;strokeWidth=2;" vertex="1" parent="mBRvrq2SXmdG_fh77SU5-352">
          <mxGeometry x="40" y="420" width="20" height="20" as="geometry" />
        </mxCell>
        <mxCell id="mBRvrq2SXmdG_fh77SU5-117" value="" style="whiteSpace=wrap;html=1;aspect=fixed;fillColor=#828282;strokeColor=#454545;fontColor=#333333;strokeWidth=2;" vertex="1" parent="mBRvrq2SXmdG_fh77SU5-352">
          <mxGeometry x="60" y="420" width="20" height="20" as="geometry" />
        </mxCell>
        <mxCell id="mBRvrq2SXmdG_fh77SU5-118" value="" style="whiteSpace=wrap;html=1;aspect=fixed;fillColor=#828282;strokeColor=#454545;fontColor=#333333;strokeWidth=2;" vertex="1" parent="mBRvrq2SXmdG_fh77SU5-352">
          <mxGeometry x="80" y="420" width="20" height="20" as="geometry" />
        </mxCell>
        <mxCell id="mBRvrq2SXmdG_fh77SU5-119" value="" style="whiteSpace=wrap;html=1;aspect=fixed;fillColor=#828282;strokeColor=#454545;fontColor=#333333;strokeWidth=2;" vertex="1" parent="mBRvrq2SXmdG_fh77SU5-352">
          <mxGeometry width="20" height="20" as="geometry" />
        </mxCell>
        <mxCell id="mBRvrq2SXmdG_fh77SU5-135" value="" style="whiteSpace=wrap;html=1;aspect=fixed;fillColor=#828282;strokeColor=#454545;fontColor=#333333;strokeWidth=2;" vertex="1" parent="mBRvrq2SXmdG_fh77SU5-352">
          <mxGeometry y="20" width="20" height="20" as="geometry" />
        </mxCell>
        <mxCell id="mBRvrq2SXmdG_fh77SU5-136" value="" style="whiteSpace=wrap;html=1;aspect=fixed;fillColor=#828282;strokeColor=#454545;fontColor=#333333;strokeWidth=2;" vertex="1" parent="mBRvrq2SXmdG_fh77SU5-352">
          <mxGeometry y="40" width="20" height="20" as="geometry" />
        </mxCell>
        <mxCell id="mBRvrq2SXmdG_fh77SU5-137" value="" style="whiteSpace=wrap;html=1;aspect=fixed;fillColor=#828282;strokeColor=#454545;fontColor=#333333;strokeWidth=2;" vertex="1" parent="mBRvrq2SXmdG_fh77SU5-352">
          <mxGeometry y="60" width="20" height="20" as="geometry" />
        </mxCell>
        <mxCell id="mBRvrq2SXmdG_fh77SU5-138" value="" style="whiteSpace=wrap;html=1;aspect=fixed;fillColor=#828282;strokeColor=#454545;fontColor=#333333;strokeWidth=2;" vertex="1" parent="mBRvrq2SXmdG_fh77SU5-352">
          <mxGeometry y="80" width="20" height="20" as="geometry" />
        </mxCell>
        <mxCell id="mBRvrq2SXmdG_fh77SU5-139" value="" style="whiteSpace=wrap;html=1;aspect=fixed;fillColor=#828282;strokeColor=#454545;fontColor=#333333;strokeWidth=2;" vertex="1" parent="mBRvrq2SXmdG_fh77SU5-352">
          <mxGeometry y="100" width="20" height="20" as="geometry" />
        </mxCell>
        <mxCell id="mBRvrq2SXmdG_fh77SU5-140" value="" style="whiteSpace=wrap;html=1;aspect=fixed;fillColor=#828282;strokeColor=#454545;fontColor=#333333;strokeWidth=2;" vertex="1" parent="mBRvrq2SXmdG_fh77SU5-352">
          <mxGeometry y="120" width="20" height="20" as="geometry" />
        </mxCell>
        <mxCell id="mBRvrq2SXmdG_fh77SU5-141" value="" style="whiteSpace=wrap;html=1;aspect=fixed;fillColor=#828282;strokeColor=#454545;fontColor=#333333;strokeWidth=2;" vertex="1" parent="mBRvrq2SXmdG_fh77SU5-352">
          <mxGeometry y="140" width="20" height="20" as="geometry" />
        </mxCell>
        <mxCell id="mBRvrq2SXmdG_fh77SU5-142" value="" style="whiteSpace=wrap;html=1;aspect=fixed;fillColor=#828282;strokeColor=#454545;fontColor=#333333;strokeWidth=2;" vertex="1" parent="mBRvrq2SXmdG_fh77SU5-352">
          <mxGeometry y="160" width="20" height="20" as="geometry" />
        </mxCell>
        <mxCell id="mBRvrq2SXmdG_fh77SU5-143" value="" style="whiteSpace=wrap;html=1;aspect=fixed;fillColor=#828282;strokeColor=#454545;fontColor=#333333;strokeWidth=2;" vertex="1" parent="mBRvrq2SXmdG_fh77SU5-352">
          <mxGeometry y="180" width="20" height="20" as="geometry" />
        </mxCell>
      </root>
    </mxGraphModel>
  </diagram>
</mxfile>
